<mxfile host="65bd71144e">
    <diagram id="vSpXc-GHez4eyNH9SWY-" name="video recoding">
        <mxGraphModel dx="605" dy="433" grid="0" gridSize="10" guides="1" tooltips="1" connect="1" arrows="1" fold="1" page="0" pageScale="1" pageWidth="827" pageHeight="1169" math="0" shadow="0">
            <root>
                <mxCell id="gVC2-wD3HlxehG9tKoDU-0"/>
                <mxCell id="gVC2-wD3HlxehG9tKoDU-1" parent="gVC2-wD3HlxehG9tKoDU-0"/>
                <mxCell id="0" value="alt" style="shape=umlFrame;whiteSpace=wrap;html=1;width=39;height=15;" vertex="1" parent="gVC2-wD3HlxehG9tKoDU-1">
                    <mxGeometry x="425" y="652" width="193" height="63" as="geometry"/>
                </mxCell>
                <mxCell id="gVC2-wD3HlxehG9tKoDU-2" value="CameraApp" style="shape=umlLifeline;perimeter=lifelinePerimeter;whiteSpace=wrap;html=1;container=1;collapsible=0;recursiveResize=0;outlineConnect=0;" parent="gVC2-wD3HlxehG9tKoDU-1" vertex="1">
                    <mxGeometry x="422" y="314" width="100" height="550" as="geometry"/>
                </mxCell>
                <mxCell id="gVC2-wD3HlxehG9tKoDU-8" value="" style="html=1;points=[];perimeter=orthogonalPerimeter;" parent="gVC2-wD3HlxehG9tKoDU-2" vertex="1">
                    <mxGeometry x="45" y="90" width="10" height="179" as="geometry"/>
                </mxCell>
                <mxCell id="gVC2-wD3HlxehG9tKoDU-10" value="start_record()" style="edgeStyle=none;html=1;" parent="gVC2-wD3HlxehG9tKoDU-2" edge="1">
                    <mxGeometry y="37" relative="1" as="geometry">
                        <mxPoint x="55" y="118" as="sourcePoint"/>
                        <mxPoint x="55" y="138" as="targetPoint"/>
                        <Array as="points">
                            <mxPoint x="75" y="118"/>
                            <mxPoint x="75" y="138"/>
                        </Array>
                        <mxPoint as="offset"/>
                    </mxGeometry>
                </mxCell>
                <mxCell id="gVC2-wD3HlxehG9tKoDU-13" value="stop_record()" style="edgeStyle=none;html=1;" parent="gVC2-wD3HlxehG9tKoDU-2" edge="1">
                    <mxGeometry y="37" relative="1" as="geometry">
                        <mxPoint x="55" y="231" as="sourcePoint"/>
                        <mxPoint x="55" y="251" as="targetPoint"/>
                        <Array as="points">
                            <mxPoint x="75" y="231"/>
                            <mxPoint x="75" y="251"/>
                        </Array>
                        <mxPoint as="offset"/>
                    </mxGeometry>
                </mxCell>
                <mxCell id="gVC2-wD3HlxehG9tKoDU-19" value="" style="html=1;points=[];perimeter=orthogonalPerimeter;" parent="gVC2-wD3HlxehG9tKoDU-2" vertex="1">
                    <mxGeometry x="45" y="303" width="10" height="132" as="geometry"/>
                </mxCell>
                <mxCell id="5" value="concat video" style="edgeStyle=none;html=1;" edge="1" parent="gVC2-wD3HlxehG9tKoDU-2">
                    <mxGeometry y="34" relative="1" as="geometry">
                        <mxPoint x="55" y="367.4999999999998" as="sourcePoint"/>
                        <mxPoint x="55" y="387.4999999999998" as="targetPoint"/>
                        <Array as="points">
                            <mxPoint x="70" y="367"/>
                            <mxPoint x="70" y="387"/>
                        </Array>
                        <mxPoint as="offset"/>
                    </mxGeometry>
                </mxCell>
                <mxCell id="gVC2-wD3HlxehG9tKoDU-4" value="Client" style="shape=umlLifeline;perimeter=lifelinePerimeter;whiteSpace=wrap;html=1;container=1;collapsible=0;recursiveResize=0;outlineConnect=0;" parent="gVC2-wD3HlxehG9tKoDU-1" vertex="1">
                    <mxGeometry x="242" y="314" width="100" height="550" as="geometry"/>
                </mxCell>
                <mxCell id="gVC2-wD3HlxehG9tKoDU-5" value="" style="html=1;points=[];perimeter=orthogonalPerimeter;" parent="gVC2-wD3HlxehG9tKoDU-4" vertex="1">
                    <mxGeometry x="45" y="90" width="10" height="80" as="geometry"/>
                </mxCell>
                <mxCell id="gVC2-wD3HlxehG9tKoDU-11" value="" style="html=1;points=[];perimeter=orthogonalPerimeter;" parent="gVC2-wD3HlxehG9tKoDU-4" vertex="1">
                    <mxGeometry x="45" y="195" width="10" height="34" as="geometry"/>
                </mxCell>
                <mxCell id="gVC2-wD3HlxehG9tKoDU-18" value="" style="html=1;points=[];perimeter=orthogonalPerimeter;" parent="gVC2-wD3HlxehG9tKoDU-4" vertex="1">
                    <mxGeometry x="45" y="289" width="10" height="158" as="geometry"/>
                </mxCell>
                <mxCell id="gVC2-wD3HlxehG9tKoDU-9" value="POST&lt;br&gt;/api/record:start" style="edgeStyle=none;html=1;" parent="gVC2-wD3HlxehG9tKoDU-1" source="gVC2-wD3HlxehG9tKoDU-5" target="gVC2-wD3HlxehG9tKoDU-8" edge="1">
                    <mxGeometry x="-0.0727" y="21" relative="1" as="geometry">
                        <mxPoint y="1" as="offset"/>
                        <Array as="points">
                            <mxPoint x="378" y="417"/>
                        </Array>
                    </mxGeometry>
                </mxCell>
                <mxCell id="gVC2-wD3HlxehG9tKoDU-12" value="POST&lt;br&gt;/api/record:stop?record_id" style="edgeStyle=none;html=1;" parent="gVC2-wD3HlxehG9tKoDU-1" source="gVC2-wD3HlxehG9tKoDU-11" target="gVC2-wD3HlxehG9tKoDU-8" edge="1">
                    <mxGeometry x="-0.0182" y="18" relative="1" as="geometry">
                        <Array as="points">
                            <mxPoint x="420" y="526"/>
                        </Array>
                        <mxPoint y="1" as="offset"/>
                    </mxGeometry>
                </mxCell>
                <mxCell id="gVC2-wD3HlxehG9tKoDU-20" value="GET&lt;br&gt;/api/video:{record_id}" style="edgeStyle=none;html=1;entryX=0.051;entryY=0.412;entryDx=0;entryDy=0;entryPerimeter=0;" parent="gVC2-wD3HlxehG9tKoDU-1" edge="1">
                    <mxGeometry x="-0.0227" y="19" relative="1" as="geometry">
                        <mxPoint x="297" y="632" as="sourcePoint"/>
                        <mxPoint x="467.51" y="632.364" as="targetPoint"/>
                        <Array as="points">
                            <mxPoint x="425" y="632"/>
                        </Array>
                        <mxPoint as="offset"/>
                    </mxGeometry>
                </mxCell>
                <mxCell id="gVC2-wD3HlxehG9tKoDU-21" value="video" style="edgeStyle=none;html=1;dashed=1;" parent="gVC2-wD3HlxehG9tKoDU-1" edge="1">
                    <mxGeometry x="0.0118" y="-9" relative="1" as="geometry">
                        <mxPoint x="467" y="737" as="sourcePoint"/>
                        <mxPoint x="297" y="737" as="targetPoint"/>
                        <mxPoint as="offset"/>
                    </mxGeometry>
                </mxCell>
                <mxCell id="4" value="If there are some videos" style="text;html=1;strokeColor=none;fillColor=none;align=center;verticalAlign=middle;whiteSpace=wrap;rounded=0;" vertex="1" parent="gVC2-wD3HlxehG9tKoDU-1">
                    <mxGeometry x="479" y="648" width="135" height="30" as="geometry"/>
                </mxCell>
                <mxCell id="6" value="record_id" style="edgeStyle=none;html=1;entryX=0.906;entryY=0.762;entryDx=0;entryDy=0;entryPerimeter=0;dashed=1;" edge="1" parent="gVC2-wD3HlxehG9tKoDU-1" source="gVC2-wD3HlxehG9tKoDU-8" target="gVC2-wD3HlxehG9tKoDU-5">
                    <mxGeometry x="0.0096" y="8" relative="1" as="geometry">
                        <mxPoint as="offset"/>
                    </mxGeometry>
                </mxCell>
            </root>
        </mxGraphModel>
    </diagram>
    <diagram id="r7t_rm0VNv2tYe7t5kmp" name="ページ1">
        <mxGraphModel dx="870" dy="910" grid="0" gridSize="10" guides="1" tooltips="1" connect="1" arrows="1" fold="1" page="0" pageScale="1" pageWidth="827" pageHeight="1169" math="0" shadow="0">
            <root>
                <mxCell id="0"/>
                <mxCell id="1" parent="0"/>
                <mxCell id="8" value="loop" style="shape=umlFrame;whiteSpace=wrap;html=1;fillColor=none;" parent="1" vertex="1">
                    <mxGeometry x="632" y="408" width="170" height="133" as="geometry"/>
                </mxCell>
                <mxCell id="2" value="Recoder" style="shape=umlLifeline;perimeter=lifelinePerimeter;whiteSpace=wrap;html=1;container=1;collapsible=0;recursiveResize=0;outlineConnect=0;" parent="1" vertex="1">
                    <mxGeometry x="666" y="286" width="100" height="300" as="geometry"/>
                </mxCell>
                <mxCell id="7" value="" style="html=1;points=[];perimeter=orthogonalPerimeter;" parent="2" vertex="1">
                    <mxGeometry x="45" y="84" width="10" height="162" as="geometry"/>
                </mxCell>
                <mxCell id="9" value="capture()" style="edgeStyle=none;html=1;" parent="2" edge="1">
                    <mxGeometry x="-0.0333" y="25" relative="1" as="geometry">
                        <mxPoint x="55" y="138.0000000000001" as="sourcePoint"/>
                        <mxPoint x="55" y="158.0000000000001" as="targetPoint"/>
                        <Array as="points">
                            <mxPoint x="75" y="138"/>
                            <mxPoint x="75" y="158"/>
                        </Array>
                        <mxPoint as="offset"/>
                    </mxGeometry>
                </mxCell>
                <mxCell id="13" value="write()" style="edgeStyle=none;html=1;" parent="2" edge="1">
                    <mxGeometry y="19" relative="1" as="geometry">
                        <mxPoint x="55" y="191" as="sourcePoint"/>
                        <mxPoint x="55" y="211" as="targetPoint"/>
                        <Array as="points">
                            <mxPoint x="72" y="191"/>
                            <mxPoint x="72" y="211"/>
                        </Array>
                        <mxPoint as="offset"/>
                    </mxGeometry>
                </mxCell>
                <mxCell id="4" value="Scheduler" style="shape=umlLifeline;perimeter=lifelinePerimeter;whiteSpace=wrap;html=1;container=1;collapsible=0;recursiveResize=0;outlineConnect=0;" parent="1" vertex="1">
                    <mxGeometry x="546" y="286" width="100" height="300" as="geometry"/>
                </mxCell>
                <mxCell id="5" value="" style="html=1;points=[];perimeter=orthogonalPerimeter;" parent="4" vertex="1">
                    <mxGeometry x="45" y="78" width="10" height="36" as="geometry"/>
                </mxCell>
                <mxCell id="10" value="" style="html=1;points=[];perimeter=orthogonalPerimeter;" parent="4" vertex="1">
                    <mxGeometry x="45" y="217" width="10" height="36" as="geometry"/>
                </mxCell>
                <mxCell id="6" value="start()" style="edgeStyle=none;html=1;" parent="1" source="5" target="7" edge="1">
                    <mxGeometry relative="1" as="geometry">
                        <mxPoint x="711" y="403.5" as="targetPoint"/>
                    </mxGeometry>
                </mxCell>
                <mxCell id="11" value="stop()" style="edgeStyle=none;html=1;" parent="1" source="10" target="7" edge="1">
                    <mxGeometry relative="1" as="geometry"/>
                </mxCell>
            </root>
        </mxGraphModel>
    </diagram>
</mxfile>